<svg xmlns="http://www.w3.org/2000/svg" viewBox="0 0 256 256" role="img" aria-labelledby="title desc">
  <title id="title">SkaiMitra logo</title>
  <desc id="desc">Graduation cap logo with a gold star.</desc>
  <path
    fill="#163e6a"
    d="M128 34 24 100l104 52 104-52-104-66Zm56 79.7v24.6c0 2.3 1 4.5 2.7 6l5.3 5v26.7c-4.8 1.9-8 6.6-8 12 0 7.2 5.8 13 13 13s13-5.8 13-13c0-5.4-3.2-10.1-8-12v-62.3h-18Z"
  />
  <path
    fill="#163e6a"
    d="M71 123.2v27.5c0 9.2 26.8 30.3 57 30.3s57-21.1 57-30.3v-27.5l-57 28.4-57-28.4Z"
  />
  <path
    fill="#f2b705"
    d="m128 60.5 10.5 31.8H172l-27 19.6 10.3 31.6L128 123.8l-27.3 19.7 10.3-31.6-27-19.6h33.5L128 60.5Z"
  />
</svg>
